<svg width="64" height="64" viewBox="0 0 64 64" fill="none" xmlns="http://www.w3.org/2000/svg">
  <rect width="64" height="64" rx="12" fill="#F3F4F6"/>
  <circle cx="28" cy="28" r="12" fill="#F59E0B"/>
  <path d="M28 14V18M28 38V42M14 28H18M38 28H42M20.5 20.5L23.5 23.5M32.5 32.5L35.5 35.5M35.5 20.5L32.5 23.5M23.5 32.5L20.5 35.5" stroke="#F59E0B" stroke-width="2" stroke-linecap="round"/>
  <path d="M44 40C44 35.5817 40.4183 32 36 32C35.3117 32 34.6486 32.1017 34.0238 32.2916C34.6398 33.419 35 34.6707 35 36C35 39.3137 32.3137 42 29 42C27.6707 42 26.419 41.6398 25.2916 41.0238C25.4815 41.6486 25.5832 42.3117 25.5832 43C25.5832 47.4183 29.165 51 33.5832 51C38.0015 51 41.5832 47.4183 41.5832 43C41.5832 42.9987 41.5832 42.9974 41.5832 42.9962C42.8803 42.738 44 41.7002 44 40Z" fill="#6366F1"/>
</svg>
