<svg width="512" height="512" viewBox="0 0 512 512" fill="none" xmlns="http://www.w3.org/2000/svg">
  <!-- Cercle de fond avec dégradé bleu -->
  <defs>
    <radialGradient id="bgGradient" cx="50%" cy="50%" r="50%">
      <stop offset="0%" style="stop-color:#2563eb;stop-opacity:1" />
      <stop offset="100%" style="stop-color:#1e40af;stop-opacity:1" />
    </radialGradient>
  </defs>

  <!-- Fond cercle principal -->
  <circle cx="256" cy="256" r="256" fill="url(#bgGradient)"/>

  <!-- Pattern décoratif d'onde -->
  <circle cx="256" cy="256" r="200" fill="none" stroke="#1e3a8a" stroke-width="1" opacity="0.2"/>
  <circle cx="256" cy="256" r="150" fill="none" stroke="#1e3a8a" stroke-width="1" opacity="0.2"/>
  <circle cx="256" cy="256" r="100" fill="none" stroke="#1e3a8a" stroke-width="1" opacity="0.2"/>

  <!-- Nœud central -->
  <circle cx="256" cy="256" r="32" fill="#e0f2fe" stroke="#7dd3fc" stroke-width="4"/>

  <!-- Lignes de connexion -->
  <line x1="256" y1="256" x2="156" y2="156" stroke="#7dd3fc" stroke-width="6" opacity="0.8"/>
  <line x1="256" y1="256" x2="356" y2="156" stroke="#7dd3fc" stroke-width="6" opacity="0.8"/>
  <line x1="256" y1="256" x2="156" y2="356" stroke="#7dd3fc" stroke-width="6" opacity="0.8"/>
  <line x1="256" y1="256" x2="356" y2="356" stroke="#7dd3fc" stroke-width="6" opacity="0.8"/>

  <!-- Nœuds externes - Haut gauche -->
  <circle cx="156" cy="156" r="24" fill="none" stroke="#7dd3fc" stroke-width="6"/>
  <circle cx="156" cy="156" r="16" fill="#e0f2fe"/>

  <!-- Nœuds externes - Haut droit -->
  <circle cx="356" cy="156" r="24" fill="none" stroke="#7dd3fc" stroke-width="6"/>
  <circle cx="356" cy="156" r="16" fill="#e0f2fe"/>

  <!-- Nœuds externes - Bas gauche -->
  <circle cx="156" cy="356" r="24" fill="none" stroke="#7dd3fc" stroke-width="6"/>
  <circle cx="156" cy="356" r="16" fill="#e0f2fe"/>

  <!-- Nœuds externes - Bas droit -->
  <circle cx="356" cy="356" r="24" fill="none" stroke="#7dd3fc" stroke-width="6"/>
  <circle cx="356" cy="356" r="16" fill="#e0f2fe"/>
</svg>
