<?xml version="1.0" encoding="utf-8" ?><svg xmlns="http://www.w3.org/2000/svg" xmlns:xlink="http://www.w3.org/1999/xlink" width="1024" height="1024" viewBox="0 0 1024 1024"><defs><linearGradient id="gradient_0" gradientUnits="userSpaceOnUse" x1="568.95374" y1="898.61176" x2="464.92416" y2="125.54971"><stop offset="0" stop-color="#00519C"/><stop offset="1" stop-color="#007DDF"/></linearGradient></defs><path fill="url(#gradient_0)" d="M451.878 126.138C471.38 123.825 484.678 121.586 504.946 121.07C595.961 118.181 685.128 147.165 757.051 203.016C760.624 205.823 764.021 208.839 767.709 211.473C769.177 212.858 770.827 214.508 772.37 215.762C777.022 218.687 792.581 234.314 797.041 238.82C847.493 290.345 882.618 354.89 898.486 425.235C921.529 526.699 903.241 633.162 847.662 721.121C792.332 808.705 704.469 870.714 603.411 893.503C501.946 916.423 395.532 898.052 307.625 842.44C219.905 786.89 157.903 698.708 135.31 597.365C133.262 588.123 131.506 578.818 130.045 569.464C127.02 541.882 125.353 528.26 126.138 499.476C125.94 495.057 126.675 485.191 127.065 480.649C129.099 456.961 133.203 430.296 140.087 407.512C157.088 336.619 208.638 258.612 264.912 212.87C276.753 200.904 318.298 173.578 333.393 166.593C337.528 162.314 377.854 146.315 385.584 143.448C387.621 142.785 389.754 141.963 391.779 141.227C411.203 135.604 422.823 131.964 443.041 127.851C445.997 127.336 448.943 126.765 451.878 126.138Z"/><defs><linearGradient id="gradient_1" gradientUnits="userSpaceOnUse" x1="478.21216" y1="799.93762" x2="491.97537" y2="557.38837"><stop offset="0" stop-color="#0053A0"/><stop offset="1" stop-color="#006AC2"/></linearGradient></defs><path fill="url(#gradient_1)" d="M458.037 551.356C460.089 548.925 470.83 540.854 473.816 538.549C491.215 554.003 508.401 557.037 529.232 545.882C536.011 554.611 545.279 564.577 551.347 572.936C567.607 591.021 583.083 609.896 599.635 628.153C624.058 655.435 650.294 681.037 678.163 704.786C676.068 708.846 674.769 711.786 673.839 716.307C673.71 716.933 673.139 720.491 673.015 720.808C672.507 721.628 672.168 722.594 671.67 723.537C653.704 757.577 615.93 767.781 581.704 778.105C567.306 782.449 551.325 788.522 535.869 792.596C490.441 804.571 442.269 801.973 398.898 783.496C360.633 766.854 324.539 735.709 292.796 708.738C292.796 708.738 289.536 708.771 289.252 708.774C296.834 698.001 297.914 686.408 291.999 674.573C316.083 662.566 345.784 640.229 367.894 624.47C369.062 623.036 377.178 617.23 379.159 615.704C387.81 609.03 396.411 602.293 404.963 595.493C416.327 586.524 427.47 577.28 438.383 567.768C442.654 564.094 454.104 553.787 458.037 551.356Z"/><defs><linearGradient id="gradient_2" gradientUnits="userSpaceOnUse" x1="421.58133" y1="657.77496" x2="469.56778" y2="543.32269"><stop offset="0" stop-color="#0058AA"/><stop offset="1" stop-color="#0088E8"/></linearGradient></defs><path fill="url(#gradient_2)" d="M458.037 551.356C460.089 548.925 470.83 540.854 473.816 538.549C491.215 554.003 508.401 557.037 529.232 545.882C536.011 554.611 545.279 564.577 551.347 572.936L550.21 573.124C548.802 571.701 540.333 560.101 538.475 560.601C534.761 561.602 530.647 562.852 526.5 563.487C526.121 567.385 522.366 576.349 521.047 580.603C513.401 605.273 503.953 638.676 480.08 652.175C460.681 663.145 433.749 662.382 413.843 654.598C406.643 651.782 369.14 633.279 366.172 628.56C366.75 627.081 367.861 625.793 367.894 624.47C369.062 623.036 377.178 617.23 379.159 615.704C387.81 609.03 396.411 602.293 404.963 595.493C416.327 586.524 427.47 577.28 438.383 567.768C442.654 564.094 454.104 553.787 458.037 551.356Z"/><path fill="#0B88DB" d="M458.037 551.356C460.089 548.925 470.83 540.854 473.816 538.549C491.215 554.003 508.401 557.037 529.232 545.882C536.011 554.611 545.279 564.577 551.347 572.936L550.21 573.124C548.802 571.701 540.333 560.101 538.475 560.601C534.761 561.602 530.647 562.852 526.5 563.487C525.168 565.034 524.365 568.04 523.694 570.019C522.77 572.747 518.951 572.039 517.525 570.349C517.063 568.068 517.776 565.531 518.213 563.165C516.098 563.104 511.747 563.547 509.662 563.795C497.091 565.292 489.435 565.093 477.804 559.859C470.492 556.568 468.637 555.816 462.113 550.367L461.661 549.985C460.573 550.491 459.945 550.809 458.792 551.143L458.037 551.356Z"/><defs><linearGradient id="gradient_3" gradientUnits="userSpaceOnUse" x1="247.48119" y1="494.47589" x2="224.22926" y2="176.74031"><stop offset="0" stop-color="#0067BE"/><stop offset="1" stop-color="#007CDF"/></linearGradient></defs><path fill="url(#gradient_3)" d="M333.393 166.593L333.513 167.616L332.071 168.439C334.514 173.48 337.51 178.121 339.949 183.203C350.134 204.425 353.876 232.713 345.696 255.17C338.24 275.64 323.138 294.986 307.337 309.737C305.049 311.873 302.473 314.904 301.784 318.007C292.294 319.266 284.911 322.747 278.899 330.477C273.639 337.215 271.277 345.769 272.334 354.252C273.291 361.826 276.214 366.663 280.918 372.465C275.444 370.086 276.549 364.607 272.707 364.362C267.391 373.867 256.725 385.3 250.206 394.545C228.733 424.833 206.411 454.664 177.686 478.542C174.002 481.604 168.976 483.644 165.396 486.553C159.189 491.597 134.981 505.268 127.533 503.382C126.232 500.74 127.83 501.713 126.138 499.476C125.94 495.057 126.675 485.191 127.065 480.649C129.099 456.961 133.203 430.296 140.087 407.512C157.088 336.619 208.638 258.612 264.912 212.87C276.753 200.904 318.298 173.578 333.393 166.593Z"/><path fill="#0070CC" d="M264.912 212.87L267.285 212.579C270.516 216.041 267.776 218.264 270.264 222.666C270.994 223.958 271.109 230.617 271.147 232.288C271.553 250.725 267.628 269 259.686 285.643C252.493 300.582 243.737 313.448 233.112 326.112C230.896 328.753 228.899 331.802 226.588 334.396C201.468 360.96 178.434 390.342 147.506 410.556C145.942 411.579 142.091 413.919 140.48 414.344C138.857 412.676 140.562 409.765 140.087 407.512C157.088 336.619 208.638 258.612 264.912 212.87Z"/><path fill="#0070CC" d="M451.878 126.138C471.38 123.825 484.678 121.586 504.946 121.07C595.961 118.181 685.128 147.165 757.051 203.016C760.624 205.823 764.021 208.839 767.709 211.473C765.744 213.911 757.491 216.994 754.309 218.319C739.961 224.295 727.198 232.735 714.448 241.471C688.013 259.582 662.011 270.76 629.303 265.241C614.881 263.704 600.216 258.532 586.725 254.128C532.718 236.493 494.435 194.25 464.74 147.58C462.244 143.658 451.328 130.43 451.878 126.138Z"/><path fill="#0070CC" d="M126.138 499.476C127.83 501.713 126.232 500.74 127.533 503.382C134.981 505.268 159.189 491.597 165.396 486.553C168.976 483.644 174.002 481.604 177.686 478.542C206.411 454.664 228.733 424.833 250.206 394.545C256.725 385.3 267.391 373.867 272.707 364.362C276.549 364.607 275.444 370.086 280.918 372.465C282.853 373.94 285.749 376.657 287.721 377.724C299.968 384.344 312.23 383.482 323.613 375.908C328.382 380.99 333.241 385.987 338.189 390.896C338.06 391.619 337.918 392.256 337.959 393C338.14 396.264 334.462 402.154 334.315 404.696L334.81 404.859C335.967 402.205 338.229 395.494 339.477 393.893L340.241 393.96L343.105 398.311C341.825 403.392 334.228 419.937 332.062 425.72C321.948 452.725 309.385 479.111 288.353 499.399C283.83 503.762 279.897 506.651 275.251 510.666C270.567 514.715 267.865 517.631 262.683 521.546C262.259 521.285 261.837 521.022 261.417 520.756L260.162 521.611C260.396 522.256 260.193 521.972 260.838 522.412C258.78 524.235 258.287 522.657 256.747 523.714C230.825 541.505 160.437 566.493 130.045 569.464C127.02 541.882 125.353 528.26 126.138 499.476Z"/><defs><linearGradient id="gradient_4" gradientUnits="userSpaceOnUse" x1="462.10776" y1="368.36935" x2="488.96597" y2="495.78458"><stop offset="0" stop-color="#0064C0"/><stop offset="1" stop-color="#009DFC"/></linearGradient></defs><path fill="url(#gradient_4)" d="M391.602 427.119C396.512 427.877 396.732 431.966 400.238 431.546C404.126 424.667 406.652 415.478 410.132 408.089C417.507 392.43 429.26 376.736 447.298 372.071C480.713 363.429 527.165 391.252 540.481 421.798C542.995 427.563 539.712 440.992 540.03 447.168L540.895 446.603C541.951 447.305 542.694 447.879 543.895 448.322C546.843 439.31 548.476 428.523 545.546 419.267L545.95 419.034C553.411 437.756 540.401 453.624 541.769 458.752C544.271 460.24 546.691 461.68 549.079 463.361C552.116 465.499 557.475 472.83 560.716 473.231C565.429 471.671 573.299 464.004 579.86 462.296C568.802 470.784 552.81 478.429 541.902 486.506C535.358 476.703 525.144 469.946 513.561 467.76C502.367 465.723 490.822 468.242 481.493 474.757C476.65 478.123 473.095 481.947 469.689 486.726C463.948 482.368 456.411 477.946 450.381 473.462C431.242 459.227 408.793 443.578 391.602 427.119Z"/><path fill="#0070CC" d="M701.638 363.102C691.722 352.296 686.841 336.399 687.51 321.873C689.075 287.883 718.536 260.658 752.727 262.966C786.585 265.252 812.981 293.615 810.789 327.908C809.729 344.53 801.979 360.013 789.309 370.823C776.117 382.267 761.799 386.021 744.529 385.097C727.713 384.197 721.681 377.544 708.282 370.095C714.528 364.068 721.199 357.752 726.957 351.309C738.693 359.667 752.716 362.234 765.813 355.055C774.15 350.541 780.321 342.863 782.937 333.75C785.473 324.856 784.372 315.32 779.874 307.239C775.015 298.653 766.976 292.795 757.489 290.269C748.642 287.896 739.213 289.167 731.309 293.797C723.218 298.475 717.366 306.232 715.091 315.298C712.35 326.367 714.85 335.076 720.637 344.525C714.261 350.673 707.928 356.866 701.638 363.102Z"/><path fill="#5AF8FE" d="M720.637 344.525C714.85 335.076 712.35 326.367 715.091 315.298C717.366 306.232 723.218 298.475 731.309 293.797C739.213 289.167 748.642 287.896 757.489 290.269C766.976 292.795 775.015 298.653 779.874 307.239C784.372 315.32 785.473 324.856 782.937 333.75C780.321 342.863 774.15 350.541 765.813 355.055C752.716 362.234 738.693 359.667 726.957 351.309C721.199 357.752 714.528 364.068 708.282 370.095L702.96 375.291C677.859 399.361 651.429 422.005 623.794 443.117C615.567 449.394 607.189 455.471 598.669 461.343C595.127 463.779 585.68 469.85 582.949 472.233C580.115 473.485 572.475 478.543 569.516 480.405L545.972 495.049C544.727 491.837 543.5 489.553 541.902 486.506C552.81 478.429 568.802 470.784 579.86 462.296C585.482 459.33 598.093 450.108 603.699 445.988C635.61 422.536 667.489 395.713 696.241 368.432L701.638 363.102C707.928 356.866 714.261 350.673 720.637 344.525Z"/><path fill="#0B88DB" d="M745.564 298.246C759.768 296.285 772.903 306.127 775.011 320.311C777.118 334.495 767.413 347.731 753.252 349.985C743.96 351.464 734.59 347.839 728.713 340.49C722.837 333.142 721.36 323.204 724.846 314.465C728.332 305.726 736.243 299.532 745.564 298.246Z"/><path fill="#E2FEFE" d="M469.689 486.726C473.095 481.947 476.65 478.123 481.493 474.757C490.822 468.242 502.367 465.723 513.561 467.76C525.144 469.946 535.358 476.703 541.902 486.506C543.5 489.553 544.727 491.837 545.972 495.049C551.794 513.484 549.036 524.824 536.957 539.883C534.399 541.905 531.824 543.905 529.232 545.882C508.401 557.037 491.215 554.003 473.816 538.549C471.462 535.43 470.268 533.85 468.421 530.44C462.374 516.743 461.747 509.93 465.432 495.513C466.624 492.326 467.72 489.508 469.689 486.726Z"/><path fill="#5AF8FE" d="M430.571 561.351C434.523 558.535 441.932 551.862 445.994 548.453C453.364 542.318 460.841 536.313 468.421 530.44C470.268 533.85 471.462 535.43 473.816 538.549C470.83 540.854 460.089 548.925 458.037 551.356C454.104 553.787 442.654 564.094 438.383 567.768C427.47 577.28 416.327 586.524 404.963 595.493C396.411 602.293 387.81 609.03 379.159 615.704C377.178 617.23 369.062 623.036 367.894 624.47C345.784 640.229 316.083 662.566 291.999 674.573C297.914 686.408 296.834 698.001 289.252 708.774C288.812 709.31 288.36 709.836 287.896 710.352C281.731 717.171 274.068 721.163 264.818 721.573C255.908 722.034 247.183 718.917 240.583 712.915C234.33 707.124 230.649 699.076 230.358 690.559C230.012 681.737 233.302 673.161 239.459 666.833C252.919 652.784 273.015 653.879 286.801 667.046C331.203 640.722 371.462 610.632 411.195 577.792C417.606 572.492 424.525 567.039 430.571 561.351Z"/><path fill="#0070CC" d="M258.855 665.706C267.307 664.194 275.921 667.338 281.412 673.94C286.903 680.542 288.424 689.585 285.396 697.621C282.368 705.656 275.258 711.446 266.776 712.783C253.848 714.82 241.691 706.07 239.519 693.164C237.348 680.259 245.972 668.011 258.855 665.706Z"/><path fill="#5AF8FE" d="M536.957 539.883C542.634 547.109 548.433 554.237 554.353 561.265C557.751 565.361 563.026 571.995 566.689 575.56C602.567 619.389 641.948 660.229 684.443 697.677C687.325 695.74 689.508 694.326 692.664 692.927C706.928 686.608 724.137 691.827 732.635 704.875C737.405 712.142 739.04 721.025 737.17 729.514C735.298 737.997 729.857 745.168 722.519 749.716C715.071 754.234 706.135 755.611 697.673 753.547C689.319 751.608 682.112 746.356 677.709 738.996C674.248 733.196 673.163 727.486 673.015 720.808C673.139 720.491 673.71 716.933 673.839 716.307C674.769 711.786 676.068 708.846 678.163 704.786C650.294 681.037 624.058 655.435 599.635 628.153C583.083 609.896 567.607 591.021 551.347 572.936C545.279 564.577 536.011 554.611 529.232 545.882C531.824 543.905 534.399 541.905 536.957 539.883Z"/><path fill="#0070CC" d="M701.912 699.171C714.826 697.179 726.891 706.084 728.795 719.011C730.698 731.938 721.711 743.942 708.772 745.757C695.957 747.555 684.092 738.674 682.207 725.871C680.322 713.068 689.122 701.143 701.912 699.171Z"/><path fill="#5AF8FE" d="M301.784 318.007C329.913 317.782 347.349 346.535 330.094 369.072C345.939 384.179 361.055 400.261 377.56 414.742C380.437 417.266 389.064 425.452 391.602 427.119C408.793 443.578 431.242 459.227 450.381 473.462C456.411 477.946 463.948 482.368 469.689 486.726C467.72 489.508 466.624 492.326 465.432 495.513C459.819 491.084 450.155 485.062 443.824 480.503C437.949 476.272 428.86 469.243 423.078 465.673C422.743 465.23 413.348 458.032 412.295 457.212C405.496 451.939 398.808 446.526 392.235 440.974C373.609 424.953 355.582 408.249 338.189 390.896C333.241 385.987 328.382 380.99 323.613 375.908C312.23 383.482 299.968 384.344 287.721 377.724C285.749 376.657 282.853 373.94 280.918 372.465C276.214 366.663 273.291 361.826 272.334 354.252C271.277 345.769 273.639 337.215 278.899 330.477C284.911 322.747 292.294 319.266 301.784 318.007Z"/><path fill="#0B88DB" d="M303.351 326.672C316.255 326.091 327.208 336.037 327.869 348.937C328.53 361.837 318.652 372.851 305.756 373.592C292.747 374.34 281.615 364.356 280.948 351.342C280.281 338.329 290.334 327.259 303.351 326.672Z"/><path fill="#0B88DB" d="M696.241 368.432C671.715 340.483 675.941 295.489 704.275 271.987C719.122 259.673 735.221 254.064 754.54 255.518C772.995 257.036 790.092 265.821 802.07 279.942C814.43 294.561 819.519 312.041 817.887 330.997C816.295 348.9 807.584 365.415 793.707 376.837C779.544 388.611 761.265 394.238 742.933 392.469C731.669 391.373 720.848 387.524 711.42 381.263C708.785 379.542 705.202 376.684 702.96 375.291L708.282 370.095C721.681 377.544 727.713 384.197 744.529 385.097C761.799 386.021 776.117 382.267 789.309 370.823C801.979 360.013 809.729 344.53 810.789 327.908C812.981 293.615 786.585 265.252 752.727 262.966C718.536 260.658 689.075 287.883 687.51 321.873C686.841 336.399 691.722 352.296 701.638 363.102L696.241 368.432Z"/><path fill="#0B88DB" d="M443.041 127.851C445.997 127.336 448.943 126.765 451.878 126.138C451.328 130.43 462.244 143.658 464.74 147.58C494.435 194.25 532.718 236.493 586.725 254.128C600.216 258.532 614.881 263.704 629.303 265.241C662.011 270.76 688.013 259.582 714.448 241.471C727.198 232.735 739.961 224.295 754.309 218.319C757.491 216.994 765.744 213.911 767.709 211.473C769.177 212.858 770.827 214.508 772.37 215.762C772.111 216.035 771.925 216.255 771.597 216.467C767.152 219.344 760.97 221.004 756.311 223.192C751.614 225.398 745.931 228.247 741.544 230.777C703.348 252.805 681.321 276.889 633.041 271.088C615.524 269.164 597.762 264.747 581.268 258.554C568.698 253.816 555.941 248.021 544.489 241.052C506.295 217.809 479.069 182.429 454.858 145.649C451.053 139.869 447.375 133.756 443.307 128.161C443.219 128.057 443.13 127.954 443.041 127.851Z"/><path fill="#0B88DB" d="M545.972 495.049L569.516 480.405C572.475 478.543 580.115 473.485 582.949 472.233C581.649 475.538 570.879 479.934 568.281 482.468C568.22 482.528 568.571 491.039 568.723 492.218C569.898 501.303 569.02 508.593 568.048 517.67C567.23 517.737 567.643 517.644 566.811 517.963C565.154 527.409 561.356 534.361 556.576 542.536C554.976 545.271 551.757 546.399 550.4 550.722C548.167 557.835 566.997 570.535 566.689 575.56C563.026 571.995 557.751 565.361 554.353 561.265C548.433 554.237 542.634 547.109 536.957 539.883C549.036 524.824 551.794 513.484 545.972 495.049Z"/><path fill="#0B88DB" d="M423.078 465.673C428.86 469.243 437.949 476.272 443.824 480.503C450.155 485.062 459.819 491.084 465.432 495.513C461.747 509.93 462.374 516.743 468.421 530.44C460.841 536.313 453.364 542.318 445.994 548.453C441.932 551.862 434.523 558.535 430.571 561.351C434.66 554.898 445.516 549.182 449.953 542.935C449.549 539.762 445.584 529.729 444.612 527.223C440.031 515.42 438.879 503.442 440.652 491.005C440.703 490.647 440.971 480.498 440.945 480.362L441.735 480.087C438.931 478.734 423.988 468.286 423.078 465.673Z"/><path fill="#0B88DB" d="M385.584 143.448C387.621 142.785 389.754 141.963 391.779 141.227C393.211 145.533 396.538 148.625 397.9 152.753L395.567 150.99C394.782 152.16 394.692 152.085 394.246 153.367C395.32 155.681 395.671 156.824 396.453 159.183L395.671 160.512C394.362 159.259 387.001 146.027 385.584 143.448Z"/><path fill="#0B88DB" d="M395.671 160.512C398.443 160.254 400.557 164.246 400.668 166.451L399.663 166.18L399.252 167.038C397.935 164.788 396.786 162.884 395.671 160.512Z"/></svg>