<svg version="1.1" id="Layer_1" xmlns="http://www.w3.org/2000/svg" xmlns:xlink="http://www.w3.org/1999/xlink" x="0px" y="0px"
	 width="100%" viewBox="0 0 672 1024" enable-background="new 0 0 672 1024" xml:space="preserve">
<path fill="#000000" opacity="1.000000" stroke="none" 
	d="
M380.012360,128.713165 
	C443.330536,129.342850 497.559235,150.683838 541.044983,196.618393 
	C568.442261,225.558456 584.454102,260.079895 588.435425,300.024719 
	C591.670227,332.479706 585.161865,363.286499 573.354858,393.223145 
	C571.642944,397.563660 571.932129,400.781677 574.228149,404.783020 
	C584.756653,423.131348 595.065796,441.608978 605.203796,460.176636 
	C612.282104,473.140533 608.660889,481.663757 594.577332,486.188354 
	C586.016296,488.938721 577.458435,491.702209 568.856567,494.319855 
	C566.001892,495.188599 564.644958,496.639404 564.035950,499.764740 
	C558.913452,526.053101 553.493713,552.283325 548.282837,578.554749 
	C542.232971,609.055786 512.488770,627.904236 482.341614,620.010498 
	C471.075012,617.060303 459.950470,613.564758 448.773102,610.277344 
	C441.002808,607.992188 437.822510,609.337158 434.508331,616.779358 
	C427.868835,631.688599 421.482666,646.704773 414.192352,661.327332 
	C411.917023,665.891052 410.048126,666.772827 405.178040,664.695801 
	C348.187500,640.389282 291.088074,616.338135 234.013931,592.227783 
	C230.357758,590.683228 226.672867,589.206848 223.209885,587.784363 
	C222.639771,585.282288 224.094391,583.913879 224.996262,582.398376 
	C238.456345,559.780640 251.784470,537.081909 265.481079,514.607910 
	C279.278748,491.968140 283.489929,467.327820 281.987152,441.293152 
	C281.170898,427.151978 279.377899,413.184082 275.844757,399.054626 
	C271.010590,400.918213 268.094330,404.670074 264.633789,407.559937 
	C246.863235,422.400146 229.313171,437.504425 211.537704,452.338684 
	C208.020081,455.274261 207.619064,457.693665 209.450928,462.013275 
	C217.129669,480.119995 213.827713,496.872101 200.577820,511.000153 
	C187.354767,525.099609 170.650070,529.076355 152.557266,522.340027 
	C134.280243,515.535156 123.828163,501.211914 123.104355,481.995270 
	C121.896187,449.919159 151.382965,427.253021 181.714066,436.827057 
	C190.598297,439.631348 195.757187,438.600952 202.485962,432.602814 
	C223.372726,413.984009 244.987869,396.182007 266.336456,378.082062 
	C267.824280,376.820648 269.085602,375.112976 271.444519,375.051392 
	C273.775269,377.062531 274.500793,380.085358 275.901886,382.677917 
	C290.354156,409.420319 311.630157,427.295258 342.105896,432.470703 
	C391.132568,440.796478 435.230072,410.129639 445.651520,361.110718 
	C449.887695,341.185211 446.714233,322.377106 437.772064,304.422119 
	C435.759216,300.380554 435.967529,298.027893 440.158691,296.276276 
	C440.918518,295.958679 441.612579,295.460052 442.295197,294.984955 
	C448.830231,290.436523 454.477295,287.092560 462.808716,293.593109 
	C470.200409,299.360382 483.285522,296.247620 490.634613,289.664368 
	C498.610565,282.519592 501.567963,271.648712 498.166229,261.979614 
	C494.692230,252.105103 485.415009,244.867661 475.439270,244.249649 
	C459.338989,243.252213 447.091644,254.689270 447.243347,270.896271 
	C447.274414,274.215027 446.193787,276.144348 443.410614,277.690033 
	C439.189728,280.034180 435.077332,282.582550 430.997925,285.168945 
	C428.710205,286.619385 426.946930,286.740204 424.885498,284.569275 
	C411.721344,270.706085 396.186188,260.872955 377.221069,256.988586 
	C374.811127,256.494995 373.426331,255.363174 374.070282,252.444717 
	C375.035522,248.070236 375.888184,243.637772 376.302063,239.184738 
	C376.668732,235.239395 378.596649,233.667282 382.277496,232.491592 
	C402.063049,226.172180 409.889679,203.997635 398.426056,187.376511 
	C391.352051,177.119934 379.227478,172.487656 366.845276,175.310852 
	C355.737946,177.843369 346.425568,188.248764 344.475861,200.305862 
	C342.788483,210.740845 348.828674,223.270096 358.867096,229.030975 
	C362.223389,230.957108 363.184692,232.932617 362.240936,236.566971 
	C361.029968,241.230515 360.150848,245.991425 359.360870,250.748947 
	C358.872009,253.692917 357.576080,255.151627 354.450317,255.133286 
	C334.316193,255.015060 316.567444,261.703674 301.071533,274.375854 
	C297.820038,277.034851 295.891632,275.710541 293.480499,273.400574 
	C270.740631,251.614929 247.970856,229.860306 225.149185,208.160355 
	C217.422256,200.813217 209.412155,193.761566 201.759995,186.339279 
	C198.941772,183.605728 196.607697,183.428925 192.950729,184.808090 
	C171.822586,192.776321 147.813217,182.591797 138.989929,162.237885 
	C129.798035,141.033691 138.856171,116.108963 159.421906,106.016426 
	C175.087585,98.328560 196.173752,102.109306 208.911453,114.889862 
	C221.722656,127.744194 224.955246,147.339569 216.514633,163.803543 
	C214.602402,167.533447 214.964691,169.664398 218.011063,172.230103 
	C222.593140,176.089188 226.965729,180.210144 231.263016,184.388824 
	C233.472290,186.537109 235.043762,186.166260 237.124664,184.188248 
	C268.916443,153.968246 307.436310,137.923889 350.173553,131.045654 
	C359.851196,129.488113 369.669922,128.678314 380.012360,128.713165 
	M419.705017,474.310455 
	C428.845062,466.065338 429.533813,453.629639 421.286957,445.748413 
	C413.057129,437.883514 400.744965,438.594513 393.444122,447.356354 
	C387.710266,454.237640 387.800293,465.001434 393.648041,471.755859 
	C399.741791,478.794434 409.939880,479.984894 419.705017,474.310455 
	z"/>
<path fill="#000000" opacity="1.000000" stroke="none" 
	d="
M269.399323,324.309204 
	C267.744263,332.162140 267.726746,332.283508 258.477783,330.949005 
	C238.190323,328.021912 217.665802,327.711304 197.340607,325.264832 
	C192.773361,324.715118 190.287079,326.100891 188.174789,330.536926 
	C179.719009,348.294861 160.641510,357.276215 141.548325,353.085968 
	C123.328125,349.087280 110.232857,332.930206 109.710213,313.803772 
	C109.159386,293.646057 122.970779,276.293427 142.929749,272.066742 
	C161.685074,268.095001 181.956375,278.734711 189.173782,297.095612 
	C191.395340,302.747223 194.139084,304.636383 200.216553,305.063599 
	C222.452316,306.626709 244.630524,309.012573 266.826447,311.130096 
	C268.449280,311.284882 270.040466,311.771149 271.846191,312.144653 
	C272.105835,316.452911 270.162262,320.062683 269.399323,324.309204 
	z"/>
<path fill="#000000" opacity="1.000000" stroke="none" 
	d="
M277.935486,759.000000 
	C277.921997,741.004517 278.029541,723.507507 277.813782,706.014465 
	C277.756927,701.406982 278.940033,699.557495 283.935272,699.575867 
	C301.813660,699.641724 301.812347,699.473694 311.897980,714.126404 
	C318.968262,724.398315 326.044617,734.666077 333.599396,745.634216 
	C337.083923,740.675781 340.233521,736.285034 343.287750,731.828918 
	C349.785339,722.348877 356.310425,712.885803 362.651917,703.301758 
	C364.421478,700.627380 366.487030,699.508911 369.665466,699.638062 
	C374.489532,699.834045 379.333221,699.829773 384.157776,699.638184 
	C387.804932,699.493347 389.242676,700.902710 389.181000,704.579163 
	C389.038574,713.074402 389.164948,721.573914 389.159851,730.071716 
	C389.147125,751.232849 388.998260,772.395142 389.192322,793.554260 
	C389.238312,798.570312 387.606506,800.203979 382.575562,800.159851 
	C367.608185,800.028442 367.606384,800.211975 367.606232,785.129517 
	C367.606018,768.320862 367.606171,751.512146 367.606171,734.703491 
	C367.184418,734.460693 366.762665,734.217957 366.340912,733.975220 
	C355.746429,748.645264 345.151917,763.315247 333.856628,778.955688 
	C322.759583,763.839539 312.147095,749.383362 301.299347,734.606750 
	C299.521912,737.188599 300.019012,739.233948 300.004181,741.143982 
	C299.863495,759.298462 299.734741,777.453491 299.747955,795.608215 
	C299.750061,798.507507 298.945801,800.072083 295.891174,800.054199 
	C291.226196,800.026917 286.560974,800.025085 281.895966,800.041382 
	C277.933228,800.055176 277.956116,797.240417 277.951416,794.491211 
	C277.931549,782.827454 277.938446,771.163757 277.935486,759.000000 
	z"/>
<path fill="#000000" opacity="1.000000" stroke="none" 
	d="
M454.672455,784.995056 
	C454.445190,758.854492 454.203491,733.213196 453.999420,707.571655 
	C453.936798,699.704773 454.104401,700.550171 461.511414,699.495605 
	C474.029572,697.713379 481.528656,702.748962 488.238007,713.126221 
	C498.888763,729.599426 511.165009,745.022217 522.770386,760.877075 
	C523.725464,762.181885 524.808289,763.393250 526.650940,765.652405 
	C526.650940,760.882263 526.652283,757.292786 526.650696,753.703247 
	C526.643616,737.715149 526.809448,721.723999 526.524475,705.740845 
	C526.436707,700.817749 528.121338,699.271423 532.836731,699.615417 
	C537.434631,699.950928 542.076172,699.688354 546.301880,699.688354 
	C547.814575,701.753052 547.389160,703.472107 547.390198,705.090454 
	C547.409241,734.901550 547.299988,764.713318 547.499634,794.523010 
	C547.529785,799.027832 545.980530,799.746460 541.846985,800.277161 
	C530.719727,801.705750 523.654480,797.731995 517.327881,788.176575 
	C506.039337,771.126953 493.107330,755.164001 480.811737,738.784851 
	C479.658569,737.248657 478.735962,735.410583 476.754547,734.462097 
	C475.626617,736.204895 476.130585,738.068604 476.126251,739.808594 
	C476.081421,757.794983 475.987671,775.782776 476.187012,793.767151 
	C476.239349,798.489807 474.695251,800.524963 469.877319,800.157898 
	C466.399384,799.892883 462.882751,799.985229 459.390045,800.108337 
	C456.074158,800.225159 454.424103,799.050537 454.638031,795.484436 
	C454.837097,792.165588 454.675385,788.825195 454.672455,784.995056 
	z"/>
<path fill="#000000" opacity="1.000000" stroke="none" 
	d="
M106.391029,720.993225 
	C108.721718,733.122437 104.188026,741.775818 94.316933,747.972046 
	C95.130295,749.569397 96.694511,749.910645 97.945290,750.582214 
	C106.546402,755.200439 110.866943,762.650574 110.987633,772.099304 
	C111.113861,781.981262 106.443443,789.655334 97.852341,794.716309 
	C91.048698,798.724426 83.460968,799.890808 75.759216,800.009155 
	C62.610615,800.211365 49.455799,799.990540 36.306091,800.151367 
	C32.294239,800.200378 30.708246,798.905212 30.727444,794.690674 
	C30.863190,764.892029 30.872158,735.092163 30.731915,705.293579 
	C30.711231,700.898865 32.209682,699.457153 36.539425,699.621338 
	C52.158676,700.213623 67.852783,698.482849 83.410759,700.592346 
	C95.209145,702.192017 103.180908,708.763794 106.391029,720.993225 
	M89.633400,770.346313 
	C88.753113,763.580322 84.906288,759.941040 77.059402,759.465271 
	C70.089920,759.042664 63.077984,759.354309 56.086189,759.248840 
	C53.249668,759.206055 52.281387,760.559998 52.333103,763.233704 
	C52.426479,768.060974 52.423130,772.891968 52.348064,777.719727 
	C52.305878,780.433105 53.417389,781.687195 56.194008,781.651001 
	C62.686600,781.566406 69.199051,781.896179 75.669540,781.501709 
	C84.056747,780.990356 87.410683,778.223511 89.633400,770.346313 
	M84.763054,726.096497 
	C83.650230,720.911011 80.007164,718.456604 75.136459,718.218201 
	C68.667603,717.901611 62.169048,718.203552 55.683205,718.216309 
	C53.389786,718.220825 52.370022,719.360657 52.380051,721.610596 
	C52.403053,726.769897 52.447487,731.930298 52.364010,737.088379 
	C52.318443,739.903992 53.665455,740.956299 56.327591,740.903625 
	C61.817238,740.794861 67.329758,741.044006 72.793976,740.631104 
	C81.553215,739.969299 85.023201,735.814697 84.763054,726.096497 
	z"/>
<path fill="#000000" opacity="1.000000" stroke="none" 
	d="
M186.540222,762.359802 
	C195.367142,784.736389 221.185211,787.007507 235.308212,778.395752 
	C240.130371,775.455322 242.551590,768.279236 240.602997,763.161438 
	C239.803574,761.061829 238.070908,761.295959 236.446136,761.281372 
	C231.781113,761.239563 227.112411,761.157043 222.451218,761.295471 
	C219.225281,761.391296 218.120071,759.954590 217.910889,756.851196 
	C217.020966,743.648010 216.952835,743.655029 230.161926,743.664795 
	C238.992828,743.671387 247.824615,743.742432 256.654175,743.634399 
	C259.967834,743.593872 261.516693,744.651062 261.388733,748.241089 
	C261.056305,757.568298 261.406128,766.894775 262.161896,776.197205 
	C262.409668,779.246582 261.378448,781.533997 259.310577,783.801575 
	C237.979462,807.193115 198.023056,808.702209 176.838348,786.177551 
	C161.480225,769.848083 158.095261,750.200867 166.406189,729.613403 
	C174.692352,709.087036 191.327393,699.064514 213.160965,697.735779 
	C229.925400,696.715454 244.709351,701.394104 256.737671,713.704529 
	C259.635529,716.670227 259.872101,718.684387 256.491608,721.249329 
	C253.191849,723.752991 250.494736,727.999023 246.891281,728.892944 
	C243.136551,729.824341 240.605362,724.757629 237.319046,722.615112 
	C225.291977,714.774353 208.541748,715.343018 196.989059,724.205872 
	C185.809799,732.782227 181.684738,747.499268 186.540222,762.359802 
	z"/>
<path fill="#000000" opacity="1.000000" stroke="none" 
	d="
M567.675903,720.000305 
	C567.680359,714.335693 567.678833,709.170959 567.694153,704.006226 
	C567.700317,701.921082 567.801392,699.713989 570.652954,699.792358 
	C587.096863,700.244385 603.705383,697.741516 619.959961,701.422668 
	C643.864624,706.836182 658.964905,725.051941 659.297424,747.958801 
	C659.641113,771.637390 644.715027,790.836060 621.198242,797.405334 
	C609.917542,800.556519 598.440308,800.044128 586.966492,800.110901 
	C582.634888,800.136108 578.279358,799.820129 573.977417,800.175842 
	C568.743652,800.608521 567.549011,798.345398 567.590576,793.472473 
	C567.797852,769.149902 567.680115,744.824524 567.675903,720.000305 
	M628.384705,771.896057 
	C645.039368,753.967529 638.511353,726.563171 615.965820,719.838013 
	C608.970032,717.751282 601.752075,718.643860 594.619995,718.305481 
	C590.480713,718.109131 589.126343,719.576294 589.181885,723.727783 
	C589.380432,738.555908 589.250671,753.388367 589.251404,768.219177 
	C589.251953,780.803345 589.256470,780.699402 601.887512,780.779297 
	C611.518555,780.840210 620.404663,778.894653 628.384705,771.896057 
	z"/>
<path fill="#000000" opacity="1.000000" stroke="none" 
	d="
M147.274933,728.000000 
	C147.289993,750.321289 147.172348,772.144104 147.421844,793.962708 
	C147.477722,798.847961 145.868240,800.574036 141.132065,800.159119 
	C137.825287,799.869385 134.453659,799.851501 131.147293,800.135254 
	C126.226105,800.557495 124.893852,798.371338 124.916420,793.716858 
	C125.056946,764.733887 124.953163,735.749817 124.970505,706.766113 
	C124.974709,699.744568 125.066956,699.721069 131.839722,699.689026 
	C147.294312,699.615967 147.293823,699.615967 147.280045,715.006836 
	C147.276321,719.171204 147.276474,723.335632 147.274933,728.000000 
	z"/>
<path fill="#000000" opacity="1.000000" stroke="none" 
	d="
M411.634216,703.171265 
	C411.701294,699.797363 413.757294,699.718750 415.839844,699.710083 
	C419.999023,699.692688 424.165161,699.839355 428.315399,699.642944 
	C432.019867,699.467590 433.309174,701.055725 433.268433,704.648315 
	C433.149567,715.128235 433.243195,725.610413 433.243134,736.091736 
	C433.243042,754.725220 433.236420,773.358643 433.230255,791.992126 
	C433.227600,800.067505 433.225067,800.067322 424.902679,800.064392 
	C423.072601,800.063782 421.242523,800.069885 419.412476,800.063293 
	C411.652161,800.035400 411.627960,800.034119 411.617920,792.497009 
	C411.592651,773.530823 411.586212,754.564636 411.582550,735.598450 
	C411.580475,724.950745 411.598907,714.303101 411.634216,703.171265 
	z"/>
</svg>

